<svg xmlns="http://www.w3.org/2000/svg" xmlns:xlink="http://www.w3.org/1999/xlink" width="150" height="100" viewBox="0 0 600 400">
<defs>
  <clipPath id="clip730">
    <rect x="0" y="0" width="600" height="400"></rect>
  </clipPath>
</defs>
<path clip-path="url(#clip730)" d="
M0 400 L600 400 L600 0 L0 0  Z
  " fill="#ffffff" fill-rule="evenodd" fill-opacity="1"></path>
<defs>
  <clipPath id="clip731">
    <rect x="120" y="0" width="421" height="400"></rect>
  </clipPath>
</defs>
<path clip-path="url(#clip730)" d="
M21.748 380.252 L588.189 380.252 L588.189 11.811 L21.748 11.811  Z
  " fill="#ffffff" fill-rule="evenodd" fill-opacity="1"></path>
<defs>
  <clipPath id="clip732">
    <rect x="21" y="11" width="567" height="369"></rect>
  </clipPath>
</defs>
<polyline clip-path="url(#clip732)" style="stroke:#000000; stroke-width:0.5; stroke-opacity:0.1; fill:none" points="
  49.8217,380.252 49.8217,11.811 
  "></polyline>
<polyline clip-path="url(#clip732)" style="stroke:#000000; stroke-width:0.5; stroke-opacity:0.1; fill:none" points="
  134.871,380.252 134.871,11.811 
  "></polyline>
<polyline clip-path="url(#clip732)" style="stroke:#000000; stroke-width:0.5; stroke-opacity:0.1; fill:none" points="
  219.92,380.252 219.92,11.811 
  "></polyline>
<polyline clip-path="url(#clip732)" style="stroke:#000000; stroke-width:0.5; stroke-opacity:0.1; fill:none" points="
  304.969,380.252 304.969,11.811 
  "></polyline>
<polyline clip-path="url(#clip732)" style="stroke:#000000; stroke-width:0.5; stroke-opacity:0.1; fill:none" points="
  390.017,380.252 390.017,11.811 
  "></polyline>
<polyline clip-path="url(#clip732)" style="stroke:#000000; stroke-width:0.5; stroke-opacity:0.1; fill:none" points="
  475.066,380.252 475.066,11.811 
  "></polyline>
<polyline clip-path="url(#clip732)" style="stroke:#000000; stroke-width:0.5; stroke-opacity:0.1; fill:none" points="
  560.115,380.252 560.115,11.811 
  "></polyline>
<polyline clip-path="url(#clip730)" style="stroke:#000000; stroke-width:1; stroke-opacity:1; fill:none" points="
  21.748,380.252 588.189,380.252 
  "></polyline>
<polyline clip-path="url(#clip730)" style="stroke:#000000; stroke-width:1; stroke-opacity:1; fill:none" points="
  49.8217,380.252 49.8217,375.831 
  "></polyline>
<polyline clip-path="url(#clip730)" style="stroke:#000000; stroke-width:1; stroke-opacity:1; fill:none" points="
  134.871,380.252 134.871,375.831 
  "></polyline>
<polyline clip-path="url(#clip730)" style="stroke:#000000; stroke-width:1; stroke-opacity:1; fill:none" points="
  219.92,380.252 219.92,375.831 
  "></polyline>
<polyline clip-path="url(#clip730)" style="stroke:#000000; stroke-width:1; stroke-opacity:1; fill:none" points="
  304.969,380.252 304.969,375.831 
  "></polyline>
<polyline clip-path="url(#clip730)" style="stroke:#000000; stroke-width:1; stroke-opacity:1; fill:none" points="
  390.017,380.252 390.017,375.831 
  "></polyline>
<polyline clip-path="url(#clip730)" style="stroke:#000000; stroke-width:1; stroke-opacity:1; fill:none" points="
  475.066,380.252 475.066,375.831 
  "></polyline>
<polyline clip-path="url(#clip730)" style="stroke:#000000; stroke-width:1; stroke-opacity:1; fill:none" points="
  560.115,380.252 560.115,375.831 
  "></polyline>
<path clip-path="url(#clip730)" d="M 0 0 M42.8165 391.213 L50.2355 391.213 L50.2355 392.197 L42.8165 392.197 L42.8165 391.213 Z" fill="#000000" fill-rule="evenodd" fill-opacity="1"></path><path clip-path="url(#clip730)" d="M 0 0 M55.0445 390.761 Q55.8836 390.941 56.3523 391.508 Q56.8269 392.075 56.8269 392.908 Q56.8269 394.187 55.9472 394.888 Q55.0676 395.588 53.4472 395.588 Q52.9033 395.588 52.3246 395.478 Q51.7517 395.374 51.1382 395.16 L51.1382 394.031 Q51.6243 394.315 52.203 394.459 Q52.7817 394.604 53.4125 394.604 Q54.5121 394.604 55.085 394.17 Q55.6637 393.736 55.6637 392.908 Q55.6637 392.145 55.1255 391.716 Q54.5931 391.282 53.6382 391.282 L52.6313 391.282 L52.6313 390.322 L53.6845 390.322 Q54.5468 390.322 55.0039 389.98 Q55.4611 389.633 55.4611 388.985 Q55.4611 388.319 54.9866 387.966 Q54.5178 387.608 53.6382 387.608 Q53.1579 387.608 52.6081 387.712 Q52.0584 387.816 51.3986 388.036 L51.3986 386.994 Q52.0641 386.809 52.6428 386.716 Q53.2273 386.624 53.7424 386.624 Q55.0734 386.624 55.8489 387.231 Q56.6243 387.833 56.6243 388.863 Q56.6243 389.581 56.2134 390.079 Q55.8026 390.57 55.0445 390.761 Z" fill="#000000" fill-rule="evenodd" fill-opacity="1"></path><path clip-path="url(#clip730)" d="M 0 0 M127.984 391.213 L135.403 391.213 L135.403 392.197 L127.984 392.197 L127.984 391.213 Z" fill="#000000" fill-rule="evenodd" fill-opacity="1"></path><path clip-path="url(#clip730)" d="M 0 0 M137.677 394.436 L141.757 394.436 L141.757 395.42 L136.271 395.42 L136.271 394.436 Q136.937 393.748 138.082 392.59 Q139.234 391.427 139.529 391.091 Q140.091 390.461 140.31 390.026 Q140.536 389.587 140.536 389.164 Q140.536 388.476 140.05 388.042 Q139.57 387.608 138.794 387.608 Q138.244 387.608 137.631 387.798 Q137.023 387.989 136.329 388.377 L136.329 387.197 Q137.035 386.913 137.648 386.768 Q138.262 386.624 138.771 386.624 Q140.114 386.624 140.912 387.295 Q141.711 387.966 141.711 389.089 Q141.711 389.621 141.508 390.102 Q141.312 390.576 140.785 391.224 Q140.64 391.392 139.865 392.197 Q139.089 392.995 137.677 394.436 Z" fill="#000000" fill-rule="evenodd" fill-opacity="1"></path><path clip-path="url(#clip730)" d="M 0 0 M212.987 391.213 L220.406 391.213 L220.406 392.197 L212.987 392.197 L212.987 391.213 Z" fill="#000000" fill-rule="evenodd" fill-opacity="1"></path><path clip-path="url(#clip730)" d="M 0 0 M221.876 394.436 L223.785 394.436 L223.785 387.845 L221.708 388.261 L221.708 387.197 L223.774 386.78 L224.943 386.78 L224.943 394.436 L226.852 394.436 L226.852 395.42 L221.876 395.42 L221.876 394.436 Z" fill="#000000" fill-rule="evenodd" fill-opacity="1"></path><path clip-path="url(#clip730)" d="M 0 0 M304.969 387.55 Q304.066 387.55 303.609 388.441 Q303.157 389.326 303.157 391.109 Q303.157 392.885 303.609 393.776 Q304.066 394.662 304.969 394.662 Q305.877 394.662 306.328 393.776 Q306.786 392.885 306.786 391.109 Q306.786 389.326 306.328 388.441 Q305.877 387.55 304.969 387.55 M304.969 386.624 Q306.421 386.624 307.185 387.775 Q307.955 388.921 307.955 391.109 Q307.955 393.29 307.185 394.442 Q306.421 395.588 304.969 395.588 Q303.516 395.588 302.746 394.442 Q301.982 393.29 301.982 391.109 Q301.982 388.921 302.746 387.775 Q303.516 386.624 304.969 386.624 Z" fill="#000000" fill-rule="evenodd" fill-opacity="1"></path><path clip-path="url(#clip730)" d="M 0 0 M387.613 394.436 L389.523 394.436 L389.523 387.845 L387.445 388.261 L387.445 387.197 L389.511 386.78 L390.68 386.78 L390.68 394.436 L392.59 394.436 L392.59 395.42 L387.613 395.42 L387.613 394.436 Z" fill="#000000" fill-rule="evenodd" fill-opacity="1"></path><path clip-path="url(#clip730)" d="M 0 0 M473.73 394.436 L477.809 394.436 L477.809 395.42 L472.323 395.42 L472.323 394.436 Q472.989 393.748 474.135 392.59 Q475.286 391.427 475.581 391.091 Q476.143 390.461 476.363 390.026 Q476.588 389.587 476.588 389.164 Q476.588 388.476 476.102 388.042 Q475.622 387.608 474.846 387.608 Q474.297 387.608 473.683 387.798 Q473.076 387.989 472.381 388.377 L472.381 387.197 Q473.087 386.913 473.701 386.768 Q474.314 386.624 474.823 386.624 Q476.166 386.624 476.965 387.295 Q477.763 387.966 477.763 389.089 Q477.763 389.621 477.561 390.102 Q477.364 390.576 476.837 391.224 Q476.693 391.392 475.917 392.197 Q475.142 392.995 473.73 394.436 Z" fill="#000000" fill-rule="evenodd" fill-opacity="1"></path><path clip-path="url(#clip730)" d="M 0 0 M561.177 390.761 Q562.016 390.941 562.485 391.508 Q562.96 392.075 562.96 392.908 Q562.96 394.187 562.08 394.888 Q561.2 395.588 559.58 395.588 Q559.036 395.588 558.457 395.478 Q557.884 395.374 557.271 395.16 L557.271 394.031 Q557.757 394.315 558.336 394.459 Q558.915 394.604 559.545 394.604 Q560.645 394.604 561.218 394.17 Q561.796 393.736 561.796 392.908 Q561.796 392.145 561.258 391.716 Q560.726 391.282 559.771 391.282 L558.764 391.282 L558.764 390.322 L559.817 390.322 Q560.68 390.322 561.137 389.98 Q561.594 389.633 561.594 388.985 Q561.594 388.319 561.119 387.966 Q560.651 387.608 559.771 387.608 Q559.291 387.608 558.741 387.712 Q558.191 387.816 557.531 388.036 L557.531 386.994 Q558.197 386.809 558.776 386.716 Q559.36 386.624 559.875 386.624 Q561.206 386.624 561.982 387.231 Q562.757 387.833 562.757 388.863 Q562.757 389.581 562.346 390.079 Q561.935 390.57 561.177 390.761 Z" fill="#000000" fill-rule="evenodd" fill-opacity="1"></path><polyline clip-path="url(#clip732)" style="stroke:#000000; stroke-width:0.5; stroke-opacity:0.1; fill:none" points="
  21.748,364.372 588.189,364.372 
  "></polyline>
<polyline clip-path="url(#clip732)" style="stroke:#000000; stroke-width:0.5; stroke-opacity:0.1; fill:none" points="
  21.748,286.138 588.189,286.138 
  "></polyline>
<polyline clip-path="url(#clip732)" style="stroke:#000000; stroke-width:0.5; stroke-opacity:0.1; fill:none" points="
  21.748,207.903 588.189,207.903 
  "></polyline>
<polyline clip-path="url(#clip732)" style="stroke:#000000; stroke-width:0.5; stroke-opacity:0.1; fill:none" points="
  21.748,129.669 588.189,129.669 
  "></polyline>
<polyline clip-path="url(#clip732)" style="stroke:#000000; stroke-width:0.5; stroke-opacity:0.1; fill:none" points="
  21.748,51.4347 588.189,51.4347 
  "></polyline>
<polyline clip-path="url(#clip730)" style="stroke:#000000; stroke-width:1; stroke-opacity:1; fill:none" points="
  21.748,380.252 21.748,11.811 
  "></polyline>
<polyline clip-path="url(#clip730)" style="stroke:#000000; stroke-width:1; stroke-opacity:1; fill:none" points="
  21.748,364.372 28.5453,364.372 
  "></polyline>
<polyline clip-path="url(#clip730)" style="stroke:#000000; stroke-width:1; stroke-opacity:1; fill:none" points="
  21.748,286.138 28.5453,286.138 
  "></polyline>
<polyline clip-path="url(#clip730)" style="stroke:#000000; stroke-width:1; stroke-opacity:1; fill:none" points="
  21.748,207.903 28.5453,207.903 
  "></polyline>
<polyline clip-path="url(#clip730)" style="stroke:#000000; stroke-width:1; stroke-opacity:1; fill:none" points="
  21.748,129.669 28.5453,129.669 
  "></polyline>
<polyline clip-path="url(#clip730)" style="stroke:#000000; stroke-width:1; stroke-opacity:1; fill:none" points="
  21.748,51.4347 28.5453,51.4347 
  "></polyline>
<path clip-path="url(#clip730)" d="M 0 0 M-1.02504 364.485 L6.3939 364.485 L6.3939 365.468 L-1.02504 365.468 L-1.02504 364.485 Z" fill="#000000" fill-rule="evenodd" fill-opacity="1"></path><path clip-path="url(#clip730)" d="M 0 0 M8.66819 367.708 L12.748 367.708 L12.748 368.692 L7.26195 368.692 L7.26195 367.708 Q7.92746 367.019 9.07328 365.862 Q10.2249 364.699 10.52 364.363 Q11.0814 363.732 11.3013 363.298 Q11.527 362.859 11.527 362.436 Q11.527 361.747 11.0409 361.313 Q10.5605 360.879 9.78508 360.879 Q9.23532 360.879 8.6219 361.07 Q8.01426 361.261 7.31982 361.649 L7.31982 360.469 Q8.02583 360.185 8.63926 360.04 Q9.25268 359.896 9.76194 359.896 Q11.1045 359.896 11.9031 360.567 Q12.7017 361.238 12.7017 362.361 Q12.7017 362.893 12.4992 363.374 Q12.3024 363.848 11.7758 364.496 Q11.6311 364.664 10.8557 365.468 Q10.0802 366.267 8.66819 367.708 Z" fill="#000000" fill-rule="evenodd" fill-opacity="1"></path><path clip-path="url(#clip730)" d="M 0 0 M-1.11763 286.25 L6.30131 286.25 L6.30131 287.234 L-1.11763 287.234 L-1.11763 286.25 Z" fill="#000000" fill-rule="evenodd" fill-opacity="1"></path><path clip-path="url(#clip730)" d="M 0 0 M7.77121 289.474 L9.68092 289.474 L9.68092 282.882 L7.60338 283.299 L7.60338 282.234 L9.66934 281.818 L10.8383 281.818 L10.8383 289.474 L12.748 289.474 L12.748 290.458 L7.77121 290.458 L7.77121 289.474 Z" fill="#000000" fill-rule="evenodd" fill-opacity="1"></path><path clip-path="url(#clip730)" d="M 0 0 M9.76194 204.353 Q8.85916 204.353 8.40199 205.244 Q7.9506 206.13 7.9506 207.912 Q7.9506 209.689 8.40199 210.58 Q8.85916 211.465 9.76194 211.465 Q10.6705 211.465 11.1219 210.58 Q11.5791 209.689 11.5791 207.912 Q11.5791 206.13 11.1219 205.244 Q10.6705 204.353 9.76194 204.353 M9.76194 203.427 Q11.2145 203.427 11.9784 204.579 Q12.748 205.724 12.748 207.912 Q12.748 210.094 11.9784 211.245 Q11.2145 212.391 9.76194 212.391 Q8.3094 212.391 7.53973 211.245 Q6.77584 210.094 6.77584 207.912 Q6.77584 205.724 7.53973 204.579 Q8.3094 203.427 9.76194 203.427 Z" fill="#000000" fill-rule="evenodd" fill-opacity="1"></path><path clip-path="url(#clip730)" d="M 0 0 M7.77121 133.005 L9.68092 133.005 L9.68092 126.414 L7.60338 126.83 L7.60338 125.766 L9.66934 125.349 L10.8383 125.349 L10.8383 133.005 L12.748 133.005 L12.748 133.989 L7.77121 133.989 L7.77121 133.005 Z" fill="#000000" fill-rule="evenodd" fill-opacity="1"></path><path clip-path="url(#clip730)" d="M 0 0 M8.66819 54.7709 L12.748 54.7709 L12.748 55.7547 L7.26195 55.7547 L7.26195 54.7709 Q7.92746 54.0822 9.07328 52.9248 Q10.2249 51.7617 10.52 51.426 Q11.0814 50.7952 11.3013 50.3612 Q11.527 49.9214 11.527 49.4989 Q11.527 48.8103 11.0409 48.3763 Q10.5605 47.9422 9.78508 47.9422 Q9.23532 47.9422 8.6219 48.1332 Q8.01426 48.3242 7.31982 48.7119 L7.31982 47.5314 Q8.02583 47.2478 8.63926 47.1031 Q9.25268 46.9584 9.76194 46.9584 Q11.1045 46.9584 11.9031 47.6297 Q12.7017 48.301 12.7017 49.4237 Q12.7017 49.9561 12.4992 50.4364 Q12.3024 50.911 11.7758 51.5591 Q11.6311 51.7269 10.8557 52.5313 Q10.0802 53.3299 8.66819 54.7709 Z" fill="#000000" fill-rule="evenodd" fill-opacity="1"></path><polyline clip-path="url(#clip732)" style="stroke:#009af9; stroke-width:1; stroke-opacity:1; fill:none" points="
  37.7794,207.903 43.1771,212.865 48.5749,217.807 53.9727,222.709 59.3704,227.552 64.7682,232.315 70.1659,236.98 75.5637,241.528 80.9615,245.941 86.3592,250.2 
  91.757,254.289 97.1547,258.191 102.553,261.891 107.95,265.374 113.348,268.625 118.746,271.631 124.144,274.381 129.541,276.863 134.939,279.068 140.337,280.986 
  145.735,282.609 151.132,283.932 156.53,284.949 161.928,285.656 167.326,286.049 172.723,286.128 178.121,285.891 183.519,285.341 188.917,284.479 194.314,283.309 
  199.712,281.835 205.11,280.063 210.508,278.001 215.905,275.656 221.303,273.039 226.701,270.159 232.099,267.029 237.497,263.66 242.894,260.067 248.292,256.264 
  253.69,252.267 259.088,248.09 264.485,243.752 269.883,239.27 275.281,234.661 280.679,229.944 286.076,225.139 291.474,220.264 296.872,215.34 302.27,210.385 
  307.667,205.421 313.065,200.467 318.463,195.542 323.861,190.667 329.258,185.862 334.656,181.146 340.054,176.537 345.452,172.054 350.849,167.716 356.247,163.54 
  361.645,159.542 367.043,155.739 372.441,152.146 377.838,148.778 383.236,145.647 388.634,142.768 394.032,140.15 399.429,137.806 404.827,135.744 410.225,133.972 
  415.623,132.498 421.02,131.327 426.418,130.465 431.816,129.915 437.214,129.679 442.611,129.758 448.009,130.151 453.407,130.858 458.805,131.874 464.202,133.197 
  469.6,134.821 474.998,136.739 480.396,138.943 485.793,141.426 491.191,144.175 496.589,147.182 501.987,150.433 507.385,153.915 512.782,157.615 518.18,161.518 
  523.578,165.607 528.976,169.866 534.373,174.279 539.771,178.827 545.169,183.492 550.567,188.255 555.964,193.097 561.362,197.999 566.76,202.941 572.158,207.903 
  
  "></polyline>
<polyline clip-path="url(#clip732)" style="stroke:#e26f46; stroke-width:1; stroke-opacity:1; fill:none" points="
  37.7794,369.824 43.1771,366.313 48.5749,362.802 53.9727,359.291 59.3704,355.781 64.7682,352.27 70.1659,348.759 75.5637,345.248 80.9615,341.737 86.3592,338.226 
  91.757,334.715 97.1547,331.204 102.553,327.693 107.95,324.182 113.348,320.671 118.746,317.16 124.144,313.649 129.541,310.138 134.939,306.627 140.337,303.116 
  145.735,299.605 151.132,296.094 156.53,292.583 161.928,289.072 167.326,285.561 172.723,282.05 178.121,278.539 183.519,275.028 188.917,271.517 194.314,268.006 
  199.712,264.495 205.11,260.984 210.508,257.473 215.905,253.962 221.303,250.451 226.701,246.941 232.099,243.43 237.497,239.919 242.894,236.408 248.292,232.897 
  253.69,229.386 259.088,225.875 264.485,222.364 269.883,218.853 275.281,215.342 280.679,211.831 286.076,208.32 291.474,204.809 296.872,201.298 302.27,197.787 
  307.667,194.276 313.065,190.765 318.463,187.254 323.861,183.743 329.258,180.232 334.656,176.721 340.054,173.21 345.452,169.699 350.849,166.188 356.247,162.677 
  361.645,159.166 367.043,155.655 372.441,152.144 377.838,148.633 383.236,145.122 388.634,141.611 394.032,138.101 399.429,134.59 404.827,131.079 410.225,127.568 
  415.623,124.057 421.02,120.546 426.418,117.035 431.816,113.524 437.214,110.013 442.611,106.502 448.009,102.991 453.407,99.4799 458.805,95.9689 464.202,92.458 
  469.6,88.947 474.998,85.436 480.396,81.925 485.793,78.4141 491.191,74.9031 496.589,71.3921 501.987,67.8812 507.385,64.3702 512.782,60.8592 518.18,57.3483 
  523.578,53.8373 528.976,50.3263 534.373,46.8154 539.771,43.3044 545.169,39.7934 550.567,36.2825 555.964,32.7715 561.362,29.2605 566.76,25.7496 572.158,22.2386 
  
  "></polyline>
<circle clip-path="url(#clip732)" cx="371.766" cy="152.583" r="3" fill="#3da44d" fill-rule="evenodd" fill-opacity="1" stroke="#000000" stroke-opacity="1" stroke-width="0.8"></circle>
<path clip-path="url(#clip730)" d="
M394.779 84.5724 L569.308 84.5724 L569.308 24.0924 L394.779 24.0924  Z
  " fill="#ffffff" fill-rule="evenodd" fill-opacity="1"></path>
<polyline clip-path="url(#clip730)" style="stroke:#000000; stroke-width:1; stroke-opacity:1; fill:none" points="
  394.779,84.5724 569.308,84.5724 569.308,24.0924 394.779,24.0924 394.779,84.5724 
  "></polyline>
<polyline clip-path="url(#clip730)" style="stroke:#009af9; stroke-width:1; stroke-opacity:1; fill:none" points="
  401.073,39.2124 438.835,39.2124 
  "></polyline>
<path clip-path="url(#clip730)" d="M 0 0 M449.255 34.5278 L449.255 35.4132 L448.237 35.4132 Q447.664 35.4132 447.438 35.6447 Q447.218 35.8762 447.218 36.478 L447.218 37.0509 L448.972 37.0509 L448.972 37.8785 L447.218 37.8785 L447.218 43.5324 L446.148 43.5324 L446.148 37.8785 L445.129 37.8785 L445.129 37.0509 L446.148 37.0509 L446.148 36.5996 Q446.148 35.5174 446.651 35.0255 Q447.155 34.5278 448.248 34.5278 L449.255 34.5278 Z" fill="#000000" fill-rule="evenodd" fill-opacity="1"></path><path clip-path="url(#clip730)" d="M 0 0 M452.93 34.5394 Q452.155 35.8704 451.778 37.1725 Q451.402 38.4745 451.402 39.8113 Q451.402 41.1481 451.778 42.4618 Q452.16 43.7697 452.93 45.0949 L452.004 45.0949 Q451.136 43.7349 450.702 42.4213 Q450.274 41.1076 450.274 39.8113 Q450.274 38.5208 450.702 37.213 Q451.13 35.9051 452.004 34.5394 L452.93 34.5394 Z" fill="#000000" fill-rule="evenodd" fill-opacity="1"></path><path clip-path="url(#clip730)" d="M 0 0 M459.435 37.0509 L457.091 40.2049 L459.556 43.5324 L458.3 43.5324 L456.414 40.9861 L454.527 43.5324 L453.272 43.5324 L455.789 40.1412 L453.486 37.0509 L454.741 37.0509 L456.46 39.36 L458.179 37.0509 L459.435 37.0509 Z" fill="#000000" fill-rule="evenodd" fill-opacity="1"></path><path clip-path="url(#clip730)" d="M 0 0 M460.505 34.5394 L461.431 34.5394 Q462.299 35.9051 462.727 37.213 Q463.162 38.5208 463.162 39.8113 Q463.162 41.1076 462.727 42.4213 Q462.299 43.7349 461.431 45.0949 L460.505 45.0949 Q461.275 43.7697 461.651 42.4618 Q462.033 41.1481 462.033 39.8113 Q462.033 38.4745 461.651 37.1725 Q461.275 35.8704 460.505 34.5394 Z" fill="#000000" fill-rule="evenodd" fill-opacity="1"></path><polyline clip-path="url(#clip730)" style="stroke:#e26f46; stroke-width:1; stroke-opacity:1; fill:none" points="
  401.073,54.3324 438.835,54.3324 
  "></polyline>
<path clip-path="url(#clip730)" d="M 0 0 M445.129 50.0124 L452.438 50.0124 L452.438 50.9962 L449.371 50.9962 L449.371 58.6524 L448.196 58.6524 L448.196 50.9962 L445.129 50.9962 L445.129 50.0124 Z" fill="#000000" fill-rule="evenodd" fill-opacity="1"></path><path clip-path="url(#clip730)" d="M 0 0 M454.539 55.3943 Q453.248 55.3943 452.751 55.6894 Q452.253 55.9846 452.253 56.6964 Q452.253 57.2635 452.623 57.5992 Q453 57.929 453.642 57.929 Q454.527 57.929 455.06 57.304 Q455.598 56.6732 455.598 55.6316 L455.598 55.3943 L454.539 55.3943 M456.663 54.9545 L456.663 58.6524 L455.598 58.6524 L455.598 57.6686 Q455.233 58.2589 454.689 58.5424 Q454.145 58.8202 453.358 58.8202 Q452.363 58.8202 451.773 58.2647 Q451.188 57.7033 451.188 56.7658 Q451.188 55.6721 451.917 55.1165 Q452.652 54.561 454.105 54.561 L455.598 54.561 L455.598 54.4568 Q455.598 53.7219 455.112 53.3226 Q454.631 52.9175 453.758 52.9175 Q453.202 52.9175 452.675 53.0506 Q452.149 53.1837 451.663 53.4499 L451.663 52.4661 Q452.247 52.2404 452.797 52.1304 Q453.347 52.0147 453.868 52.0147 Q455.274 52.0147 455.968 52.7439 Q456.663 53.473 456.663 54.9545 Z" fill="#000000" fill-rule="evenodd" fill-opacity="1"></path><path clip-path="url(#clip730)" d="M 0 0 M460.476 59.2542 Q460.025 60.4116 459.597 60.7646 Q459.168 61.1177 458.451 61.1177 L457.6 61.1177 L457.6 60.2265 L458.225 60.2265 Q458.665 60.2265 458.908 60.0181 Q459.151 59.8098 459.446 59.0343 L459.637 58.5482 L457.016 52.1709 L458.144 52.1709 L460.17 57.2404 L462.195 52.1709 L463.324 52.1709 L460.476 59.2542 Z" fill="#000000" fill-rule="evenodd" fill-opacity="1"></path><path clip-path="url(#clip730)" d="M 0 0 M464.44 49.6478 L465.505 49.6478 L465.505 58.6524 L464.44 58.6524 L464.44 49.6478 Z" fill="#000000" fill-rule="evenodd" fill-opacity="1"></path><path clip-path="url(#clip730)" d="M 0 0 M469.134 52.9175 Q468.277 52.9175 467.78 53.5888 Q467.282 54.2543 467.282 55.4175 Q467.282 56.5806 467.774 57.2519 Q468.271 57.9174 469.134 57.9174 Q469.984 57.9174 470.482 57.2461 Q470.98 56.5749 470.98 55.4175 Q470.98 54.2658 470.482 53.5945 Q469.984 52.9175 469.134 52.9175 M469.134 52.0147 Q470.523 52.0147 471.315 52.9175 Q472.108 53.8202 472.108 55.4175 Q472.108 57.0089 471.315 57.9174 Q470.523 58.8202 469.134 58.8202 Q467.739 58.8202 466.946 57.9174 Q466.159 57.0089 466.159 55.4175 Q466.159 53.8202 466.946 52.9175 Q467.739 52.0147 469.134 52.0147 Z" fill="#000000" fill-rule="evenodd" fill-opacity="1"></path><path clip-path="url(#clip730)" d="M 0 0 M476.981 53.1663 Q476.801 53.0621 476.587 53.0158 Q476.379 52.9638 476.124 52.9638 Q475.222 52.9638 474.736 53.554 Q474.255 54.1385 474.255 55.2381 L474.255 58.6524 L473.185 58.6524 L473.185 52.1709 L474.255 52.1709 L474.255 53.1779 Q474.591 52.5876 475.129 52.304 Q475.667 52.0147 476.437 52.0147 Q476.547 52.0147 476.68 52.0321 Q476.813 52.0436 476.975 52.0726 L476.981 53.1663 Z" fill="#000000" fill-rule="evenodd" fill-opacity="1"></path><path clip-path="url(#clip730)" d="M 0 0 M484.811 55.3943 Q483.52 55.3943 483.023 55.6894 Q482.525 55.9846 482.525 56.6964 Q482.525 57.2635 482.895 57.5992 Q483.271 57.929 483.914 57.929 Q484.799 57.929 485.332 57.304 Q485.87 56.6732 485.87 55.6316 L485.87 55.3943 L484.811 55.3943 M486.935 54.9545 L486.935 58.6524 L485.87 58.6524 L485.87 57.6686 Q485.505 58.2589 484.961 58.5424 Q484.417 58.8202 483.63 58.8202 Q482.635 58.8202 482.045 58.2647 Q481.46 57.7033 481.46 56.7658 Q481.46 55.6721 482.189 55.1165 Q482.924 54.561 484.377 54.561 L485.87 54.561 L485.87 54.4568 Q485.87 53.7219 485.384 53.3226 Q484.903 52.9175 484.029 52.9175 Q483.474 52.9175 482.947 53.0506 Q482.421 53.1837 481.935 53.4499 L481.935 52.4661 Q482.519 52.2404 483.069 52.1304 Q483.619 52.0147 484.139 52.0147 Q485.546 52.0147 486.24 52.7439 Q486.935 53.473 486.935 54.9545 Z" fill="#000000" fill-rule="evenodd" fill-opacity="1"></path><path clip-path="url(#clip730)" d="M 0 0 M489.082 57.6802 L489.082 61.1177 L488.011 61.1177 L488.011 52.1709 L489.082 52.1709 L489.082 53.1547 Q489.417 52.576 489.926 52.2983 Q490.441 52.0147 491.153 52.0147 Q492.334 52.0147 493.069 52.9522 Q493.809 53.8897 493.809 55.4175 Q493.809 56.9452 493.069 57.8827 Q492.334 58.8202 491.153 58.8202 Q490.441 58.8202 489.926 58.5424 Q489.417 58.2589 489.082 57.6802 M492.704 55.4175 Q492.704 54.2427 492.218 53.5772 Q491.738 52.9059 490.893 52.9059 Q490.048 52.9059 489.562 53.5772 Q489.082 54.2427 489.082 55.4175 Q489.082 56.5922 489.562 57.2635 Q490.048 57.929 490.893 57.929 Q491.738 57.929 492.218 57.2635 Q492.704 56.5922 492.704 55.4175 Z" fill="#000000" fill-rule="evenodd" fill-opacity="1"></path><path clip-path="url(#clip730)" d="M 0 0 M495.956 57.6802 L495.956 61.1177 L494.886 61.1177 L494.886 52.1709 L495.956 52.1709 L495.956 53.1547 Q496.292 52.576 496.801 52.2983 Q497.316 52.0147 498.028 52.0147 Q499.209 52.0147 499.944 52.9522 Q500.684 53.8897 500.684 55.4175 Q500.684 56.9452 499.944 57.8827 Q499.209 58.8202 498.028 58.8202 Q497.316 58.8202 496.801 58.5424 Q496.292 58.2589 495.956 57.6802 M499.579 55.4175 Q499.579 54.2427 499.093 53.5772 Q498.613 52.9059 497.768 52.9059 Q496.923 52.9059 496.437 53.5772 Q495.956 54.2427 495.956 55.4175 Q495.956 56.5922 496.437 57.2635 Q496.923 57.929 497.768 57.929 Q498.613 57.929 499.093 57.2635 Q499.579 56.5922 499.579 55.4175 Z" fill="#000000" fill-rule="evenodd" fill-opacity="1"></path><path clip-path="url(#clip730)" d="M 0 0 M505.557 53.1663 Q505.378 53.0621 505.164 53.0158 Q504.955 52.9638 504.701 52.9638 Q503.798 52.9638 503.312 53.554 Q502.831 54.1385 502.831 55.2381 L502.831 58.6524 L501.761 58.6524 L501.761 52.1709 L502.831 52.1709 L502.831 53.1779 Q503.167 52.5876 503.705 52.304 Q504.243 52.0147 505.013 52.0147 Q505.123 52.0147 505.256 52.0321 Q505.389 52.0436 505.551 52.0726 L505.557 53.1663 Z" fill="#000000" fill-rule="evenodd" fill-opacity="1"></path><path clip-path="url(#clip730)" d="M 0 0 M508.925 52.9175 Q508.069 52.9175 507.571 53.5888 Q507.073 54.2543 507.073 55.4175 Q507.073 56.5806 507.565 57.2519 Q508.063 57.9174 508.925 57.9174 Q509.776 57.9174 510.274 57.2461 Q510.771 56.5749 510.771 55.4175 Q510.771 54.2658 510.274 53.5945 Q509.776 52.9175 508.925 52.9175 M508.925 52.0147 Q510.314 52.0147 511.107 52.9175 Q511.9 53.8202 511.9 55.4175 Q511.9 57.0089 511.107 57.9174 Q510.314 58.8202 508.925 58.8202 Q507.53 58.8202 506.738 57.9174 Q505.951 57.0089 505.951 55.4175 Q505.951 53.8202 506.738 52.9175 Q507.53 52.0147 508.925 52.0147 Z" fill="#000000" fill-rule="evenodd" fill-opacity="1"></path><path clip-path="url(#clip730)" d="M 0 0 M518.04 52.1709 L515.696 55.3249 L518.161 58.6524 L516.905 58.6524 L515.019 56.1061 L513.132 58.6524 L511.877 58.6524 L514.394 55.2612 L512.091 52.1709 L513.346 52.1709 L515.065 54.48 L516.784 52.1709 L518.04 52.1709 Z" fill="#000000" fill-rule="evenodd" fill-opacity="1"></path><path clip-path="url(#clip730)" d="M 0 0 M519.278 52.1709 L520.343 52.1709 L520.343 58.6524 L519.278 58.6524 L519.278 52.1709 M519.278 49.6478 L520.343 49.6478 L520.343 50.9962 L519.278 50.9962 L519.278 49.6478 Z" fill="#000000" fill-rule="evenodd" fill-opacity="1"></path><path clip-path="url(#clip730)" d="M 0 0 M526.506 53.4151 Q526.905 52.6976 527.461 52.3561 Q528.016 52.0147 528.769 52.0147 Q529.782 52.0147 530.331 52.7265 Q530.881 53.4325 530.881 54.7404 L530.881 58.6524 L529.81 58.6524 L529.81 54.7751 Q529.81 53.8434 529.481 53.392 Q529.151 52.9406 528.474 52.9406 Q527.646 52.9406 527.166 53.4904 Q526.685 54.0401 526.685 54.9892 L526.685 58.6524 L525.615 58.6524 L525.615 54.7751 Q525.615 53.8376 525.285 53.392 Q524.955 52.9406 524.267 52.9406 Q523.451 52.9406 522.97 53.4962 Q522.49 54.0459 522.49 54.9892 L522.49 58.6524 L521.419 58.6524 L521.419 52.1709 L522.49 52.1709 L522.49 53.1779 Q522.854 52.5818 523.364 52.2983 Q523.873 52.0147 524.573 52.0147 Q525.279 52.0147 525.771 52.3735 Q526.269 52.7323 526.506 53.4151 Z" fill="#000000" fill-rule="evenodd" fill-opacity="1"></path><path clip-path="url(#clip730)" d="M 0 0 M534.944 55.3943 Q533.653 55.3943 533.155 55.6894 Q532.658 55.9846 532.658 56.6964 Q532.658 57.2635 533.028 57.5992 Q533.404 57.929 534.047 57.929 Q534.932 57.929 535.464 57.304 Q536.003 56.6732 536.003 55.6316 L536.003 55.3943 L534.944 55.3943 M537.067 54.9545 L537.067 58.6524 L536.003 58.6524 L536.003 57.6686 Q535.638 58.2589 535.094 58.5424 Q534.55 58.8202 533.763 58.8202 Q532.768 58.8202 532.177 58.2647 Q531.593 57.7033 531.593 56.7658 Q531.593 55.6721 532.322 55.1165 Q533.057 54.561 534.51 54.561 L536.003 54.561 L536.003 54.4568 Q536.003 53.7219 535.516 53.3226 Q535.036 52.9175 534.162 52.9175 Q533.607 52.9175 533.08 53.0506 Q532.553 53.1837 532.067 53.4499 L532.067 52.4661 Q532.652 52.2404 533.202 52.1304 Q533.751 52.0147 534.272 52.0147 Q535.678 52.0147 536.373 52.7439 Q537.067 53.473 537.067 54.9545 Z" fill="#000000" fill-rule="evenodd" fill-opacity="1"></path><path clip-path="url(#clip730)" d="M 0 0 M539.237 50.3307 L539.237 52.1709 L541.431 52.1709 L541.431 52.9985 L539.237 52.9985 L539.237 56.517 Q539.237 57.3098 539.452 57.5355 Q539.672 57.7612 540.337 57.7612 L541.431 57.7612 L541.431 58.6524 L540.337 58.6524 Q539.104 58.6524 538.636 58.1952 Q538.167 57.7323 538.167 56.517 L538.167 52.9985 L537.386 52.9985 L537.386 52.1709 L538.167 52.1709 L538.167 50.3307 L539.237 50.3307 Z" fill="#000000" fill-rule="evenodd" fill-opacity="1"></path><path clip-path="url(#clip730)" d="M 0 0 M542.548 52.1709 L543.612 52.1709 L543.612 58.6524 L542.548 58.6524 L542.548 52.1709 M542.548 49.6478 L543.612 49.6478 L543.612 50.9962 L542.548 50.9962 L542.548 49.6478 Z" fill="#000000" fill-rule="evenodd" fill-opacity="1"></path><path clip-path="url(#clip730)" d="M 0 0 M547.241 52.9175 Q546.384 52.9175 545.887 53.5888 Q545.389 54.2543 545.389 55.4175 Q545.389 56.5806 545.881 57.2519 Q546.379 57.9174 547.241 57.9174 Q548.092 57.9174 548.589 57.2461 Q549.087 56.5749 549.087 55.4175 Q549.087 54.2658 548.589 53.5945 Q548.092 52.9175 547.241 52.9175 M547.241 52.0147 Q548.63 52.0147 549.423 52.9175 Q550.215 53.8202 550.215 55.4175 Q550.215 57.0089 549.423 57.9174 Q548.63 58.8202 547.241 58.8202 Q545.846 58.8202 545.053 57.9174 Q544.266 57.0089 544.266 55.4175 Q544.266 53.8202 545.053 52.9175 Q545.846 52.0147 547.241 52.0147 Z" fill="#000000" fill-rule="evenodd" fill-opacity="1"></path><path clip-path="url(#clip730)" d="M 0 0 M556.72 54.7404 L556.72 58.6524 L555.655 58.6524 L555.655 54.7751 Q555.655 53.855 555.296 53.3978 Q554.938 52.9406 554.22 52.9406 Q553.358 52.9406 552.86 53.4904 Q552.362 54.0401 552.362 54.9892 L552.362 58.6524 L551.292 58.6524 L551.292 52.1709 L552.362 52.1709 L552.362 53.1779 Q552.744 52.5934 553.259 52.304 Q553.78 52.0147 554.457 52.0147 Q555.574 52.0147 556.147 52.7091 Q556.72 53.3978 556.72 54.7404 Z" fill="#000000" fill-rule="evenodd" fill-opacity="1"></path><circle clip-path="url(#clip730)" cx="419.954" cy="69.4524" r="5" fill="#3da44d" fill-rule="evenodd" fill-opacity="1" stroke="#000000" stroke-opacity="1" stroke-width="1.28"></circle>
<path clip-path="url(#clip730)" d="M 0 0 M451.292 67.2909 L448.949 70.4449 L451.414 73.7724 L450.158 73.7724 L448.272 71.2261 L446.385 73.7724 L445.129 73.7724 L447.647 70.3812 L445.343 67.2909 L446.599 67.2909 L448.318 69.6 L450.037 67.2909 L451.292 67.2909 Z" fill="#000000" fill-rule="evenodd" fill-opacity="1"></path><path clip-path="url(#clip730)" d="M 0 0 M455.181 65.9021 Q454.278 65.9021 453.821 66.7933 Q453.37 67.6787 453.37 69.4611 Q453.37 71.2377 453.821 72.1289 Q454.278 73.0143 455.181 73.0143 Q456.09 73.0143 456.541 72.1289 Q456.998 71.2377 456.998 69.4611 Q456.998 67.6787 456.541 66.7933 Q456.09 65.9021 455.181 65.9021 M455.181 64.9761 Q456.634 64.9761 457.398 66.1278 Q458.167 67.2736 458.167 69.4611 Q458.167 71.6428 457.398 72.7944 Q456.634 73.9402 455.181 73.9402 Q453.729 73.9402 452.959 72.7944 Q452.195 71.6428 452.195 69.4611 Q452.195 67.2736 452.959 66.1278 Q453.729 64.9761 455.181 64.9761 Z" fill="#000000" fill-rule="evenodd" fill-opacity="1"></path></svg>